<svg width="20" height="34" viewBox="0 0 20 34" fill="none" xmlns="http:&#x2F;&#x2F;www.w3.org&#x2F;2000&#x2F;svg"><path d="M16.3532 11.06C16.3532 13.785 13.874 17 10.1232 17H6.5104L6.33297 18.135L5.49014 23.6H1L3.70099 6H10.9759C13.4255 6 15.3527 7.385 16.0624 9.31C16.2645 9.855 16.3631 10.445 16.3532 11.06Z" fill="#002991"></path><path d="M18.9408 16.1201C18.443 19.1701 15.8553 21.4001 12.7946 21.4001H10.2858L9.24089 28.0001H4.77539L5.49007 23.6001L6.33289 18.1351L6.51033 17.0001H10.1231C13.869 17.0001 16.3532 13.7851 16.3532 11.0601C18.1965 12.0251 19.271 13.9751 18.9408 16.1201Z" fill="#60CDFF"></path><path d="M16.3536 11.06C15.5797 10.65 14.6433 10.4 13.623 10.4H7.53101L6.51074 17H10.1236C13.8695 17 16.3536 13.785 16.3536 11.06Z" fill="#008CFF"></path></svg>