<svg width="48" height="31" viewBox="0 0 48 31" fill="none" xmlns="http:&#x2F;&#x2F;www.w3.org&#x2F;2000&#x2F;svg"><mask id="mask0_11874_358289" style="mask-type:alpha" maskUnits="userSpaceOnUse" x="0" y="0" width="48" height="31"><rect width="48" height="30.2274" rx="2" fill="#0C0C0D"></rect></mask><g mask="url(#mask0_11874_358289)"><mask id="mask1_11874_358289" style="mask-type:alpha" maskUnits="userSpaceOnUse" x="0" y="0" width="48" height="31"><rect width="48" height="30.2274" rx="4" fill="#0C0C0D"></rect></mask><g mask="url(#mask1_11874_358289)"><rect width="48" height="30.2274" fill="white"></rect><rect width="48" height="30.2274" fill="url(#paint0_linear_11874_358289)"></rect><rect width="48" height="30.2274" fill="url(#paint1_radial_11874_358289)"></rect><g clip-path="url(#clip0_11874_358289)"><path d="M18.9552 24.1178V22.9151C18.9621 22.8142 18.9477 22.713 18.913 22.6182C18.8784 22.5234 18.8242 22.4371 18.754 22.3653C18.6839 22.2934 18.5995 22.2375 18.5065 22.2013C18.4134 22.1651 18.3138 22.1494 18.2143 22.1554C18.0837 22.1467 17.9532 22.1737 17.8364 22.2337C17.7196 22.2936 17.6209 22.3843 17.5504 22.4961C17.4862 22.3876 17.3943 22.2987 17.2844 22.2387C17.1745 22.1787 17.0507 22.1499 16.9261 22.1554C16.8174 22.1498 16.7092 22.1731 16.6122 22.2231C16.5151 22.273 16.4326 22.3478 16.3729 22.44V22.2035H15.9619V24.1178H16.3768V23.0574C16.3676 22.9918 16.3729 22.925 16.3923 22.8617C16.4117 22.7984 16.4447 22.7403 16.489 22.6916C16.5332 22.6429 16.5876 22.6047 16.6482 22.5799C16.7087 22.5552 16.774 22.5443 16.8391 22.5483C17.1118 22.5483 17.2501 22.7287 17.2501 23.0534V24.1178H17.665V23.0574C17.6565 22.9919 17.6623 22.9254 17.682 22.8624C17.7017 22.7995 17.7347 22.7417 17.7788 22.6931C17.8229 22.6446 17.877 22.6064 17.9372 22.5814C17.9974 22.5564 18.0623 22.5451 18.1273 22.5483C18.4079 22.5483 18.5422 22.7287 18.5422 23.0534V24.1178H18.9552ZM21.2668 23.1616V22.2055H20.8519V22.438C20.7822 22.3468 20.6921 22.2737 20.589 22.2249C20.4859 22.1761 20.3728 22.153 20.2592 22.1574C19.9972 22.1574 19.7459 22.263 19.5606 22.4509C19.3754 22.6389 19.2713 22.8938 19.2713 23.1596C19.2713 23.4254 19.3754 23.6804 19.5606 23.8683C19.7459 24.0563 19.9972 24.1619 20.2592 24.1619C20.3728 24.1663 20.4859 24.1431 20.589 24.0943C20.6921 24.0455 20.7822 23.9725 20.8519 23.8812V24.1137H21.2628L21.2668 23.1616ZM19.7395 23.1616C19.7461 23.0488 19.785 22.9404 19.8515 22.8498C19.918 22.7592 20.0092 22.6902 20.1138 22.6515C20.2185 22.6128 20.332 22.6059 20.4404 22.6318C20.5488 22.6577 20.6474 22.7152 20.724 22.7972C20.8006 22.8792 20.8519 22.9822 20.8716 23.0934C20.8912 23.2046 20.8784 23.3193 20.8347 23.4232C20.7909 23.5271 20.7182 23.6158 20.6254 23.6783C20.5327 23.7408 20.4239 23.7744 20.3125 23.775C20.2339 23.7769 20.1557 23.7621 20.083 23.7315C20.0104 23.701 19.9448 23.6554 19.8905 23.5976C19.8361 23.5399 19.7943 23.4713 19.7677 23.3962C19.741 23.3211 19.7301 23.2412 19.7356 23.1616H19.7395ZM30.047 22.1594C30.1823 22.159 30.3164 22.1849 30.4422 22.2356C30.5622 22.2843 30.6716 22.3565 30.7642 22.448C30.8556 22.5387 30.9282 22.6471 30.9776 22.7667C31.0808 23.0237 31.0808 23.3115 30.9776 23.5685C30.9282 23.6882 30.8557 23.7966 30.7642 23.8872C30.6716 23.9788 30.5622 24.051 30.4422 24.0997C30.1816 24.2024 29.8926 24.2024 29.6321 24.0997C29.5126 24.051 29.4039 23.9788 29.312 23.8872C29.2215 23.7962 29.1496 23.6879 29.1006 23.5685C28.9976 23.3115 28.9976 23.0238 29.1006 22.7667C29.1496 22.6474 29.2215 22.539 29.312 22.448C29.4039 22.3565 29.5126 22.2843 29.6321 22.2356C29.7624 22.1808 29.9021 22.1528 30.0431 22.1534L30.047 22.1594ZM30.047 22.5603C29.9665 22.5592 29.8866 22.5742 29.8119 22.6044C29.7415 22.633 29.6776 22.676 29.6242 22.7307C29.5697 22.7882 29.5274 22.8564 29.4997 22.9311C29.4394 23.0912 29.4394 23.2682 29.4997 23.4282C29.5273 23.5029 29.5697 23.5712 29.6242 23.6287C29.6776 23.6834 29.7415 23.7264 29.8119 23.7549C29.9624 23.8147 30.1296 23.8147 30.2801 23.7549C30.3539 23.7273 30.4212 23.6843 30.4777 23.6287C30.5323 23.5712 30.5747 23.503 30.6022 23.4282C30.6625 23.2682 30.6625 23.0912 30.6022 22.9311C30.5747 22.8563 30.5323 22.7881 30.4777 22.7307C30.4212 22.6751 30.3539 22.6321 30.2801 22.6044C30.2056 22.5698 30.125 22.5507 30.0431 22.5483L30.047 22.5603ZM23.4994 23.1616C23.4994 22.5603 23.1319 22.1594 22.6044 22.1594C22.3424 22.1631 22.0926 22.2723 21.9099 22.4629C21.7272 22.6534 21.6267 22.9098 21.6303 23.1757C21.634 23.4415 21.7416 23.6949 21.9294 23.8802C22.1173 24.0656 22.37 24.1676 22.632 24.1639C22.9133 24.1736 23.1883 24.078 23.4045 23.8953L23.207 23.5866C23.051 23.7135 22.8577 23.784 22.6577 23.787C22.5219 23.7989 22.3868 23.7565 22.2813 23.6689C22.1758 23.5813 22.1081 23.4554 22.0927 23.318H23.4935C23.4994 23.2679 23.4994 23.2178 23.4994 23.1616ZM22.0946 22.9933C22.1023 22.866 22.1582 22.7467 22.2506 22.6604C22.3431 22.574 22.4649 22.5274 22.5905 22.5302C22.652 22.5289 22.7132 22.5399 22.7705 22.5625C22.8278 22.5852 22.8802 22.6191 22.9246 22.6622C22.969 22.7054 23.0045 22.7571 23.0293 22.8142C23.054 22.8713 23.0674 22.9329 23.0687 22.9953L22.0946 22.9933ZM25.2282 22.6926C25.0477 22.5872 24.8436 22.5306 24.6354 22.5282C24.4102 22.5282 24.2758 22.6124 24.2758 22.7527C24.2758 22.893 24.4181 22.9171 24.5959 22.9411L24.7935 22.9692C25.2044 23.0293 25.4534 23.2057 25.4534 23.5425C25.4534 23.8792 25.1373 24.1679 24.5939 24.1679C24.3027 24.1757 24.0167 24.0886 23.778 23.9193L23.9755 23.5946C24.1569 23.7311 24.3782 23.8017 24.6038 23.795C24.8844 23.795 25.0345 23.7109 25.0345 23.5625C25.0345 23.4543 24.9278 23.3941 24.7026 23.3621L24.505 23.334C24.0822 23.2739 23.853 23.0814 23.853 22.7688C23.853 22.3879 24.1613 22.1554 24.6433 22.1554C24.9132 22.1462 25.1799 22.2158 25.4119 22.3558L25.2282 22.6926ZM27.2039 22.5843H26.5341V23.4483C26.5341 23.6487 26.6013 23.769 26.8068 23.769C26.935 23.7647 27.0601 23.7274 27.1703 23.6607L27.2889 24.0175C27.1348 24.1151 26.9567 24.1665 26.7752 24.1659C26.2891 24.1659 26.1192 23.9013 26.1192 23.4563V22.5843H25.7359V22.2035H26.1192V21.6222H26.5341V22.2035H27.2039V22.5843ZM28.6245 22.1554C28.7241 22.1558 28.823 22.1734 28.9169 22.2075L28.7904 22.6084C28.7088 22.5754 28.6215 22.559 28.5336 22.5603C28.2649 22.5603 28.1384 22.7367 28.1384 23.0534V24.1258H27.7275V22.2115H28.1345V22.444C28.1849 22.3561 28.2578 22.2837 28.3454 22.2343C28.433 22.1849 28.5322 22.1604 28.6324 22.1634L28.6245 22.1554ZM31.4656 23.8391C31.4913 23.8388 31.5168 23.8436 31.5407 23.8532C31.5634 23.8626 31.5841 23.8762 31.6019 23.8933C31.6193 23.9105 31.6333 23.9309 31.6434 23.9534C31.6534 23.9768 31.6586 24.002 31.6586 24.0276C31.6586 24.0531 31.6534 24.0783 31.6434 24.1017C31.6333 24.1242 31.6193 24.1446 31.6019 24.1619C31.5841 24.179 31.5634 24.1926 31.5407 24.2019C31.517 24.2125 31.4914 24.218 31.4656 24.218C31.4281 24.2177 31.3915 24.2066 31.3601 24.186C31.3286 24.1654 31.3035 24.1362 31.2878 24.1017C31.2779 24.0783 31.2728 24.0531 31.2728 24.0276C31.2728 24.0021 31.2779 23.9768 31.2878 23.9534C31.2978 23.9309 31.3119 23.9105 31.3293 23.8933C31.3471 23.8762 31.3678 23.8626 31.3905 23.8532C31.4113 23.8448 31.4333 23.84 31.4557 23.8391H31.4656ZM31.4656 24.1779C31.4853 24.178 31.5048 24.1739 31.5229 24.1659C31.5399 24.1582 31.5553 24.1473 31.5683 24.1338C31.5851 24.1167 31.5975 24.0957 31.6044 24.0726C31.6114 24.0495 31.6126 24.0251 31.6082 24.0014C31.6037 23.9777 31.5936 23.9554 31.5787 23.9366C31.5639 23.9178 31.5447 23.9029 31.5229 23.8933C31.5048 23.8853 31.4853 23.8812 31.4656 23.8812C31.4459 23.8813 31.4264 23.8854 31.4083 23.8933C31.3905 23.9006 31.3744 23.9115 31.3609 23.9253C31.3362 23.9527 31.3225 23.9884 31.3225 24.0256C31.3225 24.0627 31.3362 24.0984 31.3609 24.1258C31.3746 24.1398 31.3909 24.151 31.4088 24.1585C31.4268 24.1661 31.4461 24.17 31.4656 24.1699V24.1779ZM31.4774 23.9394C31.4959 23.9385 31.5141 23.9441 31.5288 23.9554C31.5349 23.9605 31.5396 23.9669 31.5427 23.9743C31.5458 23.9816 31.5471 23.9895 31.5466 23.9975C31.5469 24.0041 31.5458 24.0108 31.5434 24.017C31.541 24.0232 31.5374 24.0289 31.5328 24.0336C31.5213 24.0441 31.5067 24.0505 31.4913 24.0516L31.5486 24.1178H31.5031L31.4498 24.0516H31.432V24.1178H31.3945V23.9333L31.4774 23.9394ZM31.434 23.9734V24.0215H31.4774C31.4852 24.0239 31.4934 24.0239 31.5012 24.0215C31.5025 24.0187 31.5033 24.0157 31.5033 24.0125C31.5033 24.0094 31.5025 24.0063 31.5012 24.0035C31.5025 24.0007 31.5033 23.9976 31.5033 23.9945C31.5033 23.9913 31.5025 23.9883 31.5012 23.9855C31.4934 23.9831 31.4852 23.9831 31.4774 23.9855L31.434 23.9734Z" fill="black"></path><path d="M26.6113 7.59891H20.3877V18.9462H26.6113V7.59891Z" fill="#7673C0"></path><path d="M20.7832 13.2747C20.7821 12.1817 21.0261 11.1028 21.4967 10.1196C21.9674 9.13647 22.6524 8.27486 23.4999 7.60003C22.4506 6.76341 21.1904 6.24316 19.8635 6.09875C18.5366 5.95434 17.1963 6.19159 15.996 6.78339C14.7957 7.37519 13.7837 8.29766 13.0757 9.44537C12.3677 10.5931 11.9922 11.9197 11.9922 13.2737C11.9922 14.6276 12.3677 15.9543 13.0757 17.102C13.7837 18.2497 14.7957 19.1722 15.996 19.764C17.1963 20.3558 18.5366 20.593 19.8635 20.4486C21.1904 20.3042 22.4506 19.784 23.4999 18.9473C22.6527 18.2727 21.9678 17.4114 21.4972 16.4286C21.0265 15.4459 20.7824 14.3673 20.7832 13.2747Z" fill="#EB001B"></path><path d="M34.3288 17.7435V17.519H34.4216V17.4709H34.1865V17.519H34.2794V17.7515L34.3288 17.7435ZM34.7852 17.7435V17.4629H34.7141L34.6311 17.6633L34.5481 17.4629H34.475V17.7435H34.5264V17.533L34.6034 17.7155H34.6568L34.7338 17.533V17.7455L34.7852 17.7435Z" fill="#00A1DF"></path><path d="M35.0067 13.2736C35.0064 14.6273 34.6308 15.9536 33.9227 17.101C33.2147 18.2484 32.2028 19.1706 31.0027 19.7622C29.8026 20.3539 28.4626 20.5911 27.1359 20.4468C25.8092 20.3025 24.5492 19.7825 23.5 18.9462C24.3469 18.271 25.0315 17.4095 25.5023 16.4266C25.9731 15.4438 26.2177 14.3653 26.2177 13.2726C26.2177 12.1798 25.9731 11.1013 25.5023 10.1185C25.0315 9.13566 24.3469 8.27413 23.5 7.59891C24.5492 6.76203 25.8094 6.24153 27.1364 6.09691C28.4634 5.95229 29.8038 6.1894 31.0042 6.78111C32.2047 7.37282 33.2169 8.29527 33.925 9.44302C34.6331 10.5908 35.0087 11.9175 35.0087 13.2716L35.0067 13.2736Z" fill="#00A1DF"></path></g></g></g><defs><linearGradient id="paint0_linear_11874_358289" x1="-1.00191e-07" y1="0.699709" x2="47.3003" y2="30.2274" gradientUnits="userSpaceOnUse"><stop offset="0.273366" stop-color="white"></stop><stop offset="0.777565" stop-color="#F0F0F0"></stop><stop offset="1" stop-color="#DFDFDF"></stop></linearGradient><radialGradient id="paint1_radial_11874_358289" cx="0" cy="0" r="1" gradientUnits="userSpaceOnUse" gradientTransform="translate(23 14.1061) rotate(87.0864) scale(19.6732 31.2398)"><stop stop-color="white"></stop><stop offset="1" stop-color="#E9E9E9"></stop></radialGradient><clipPath id="clip0_11874_358289"><rect width="29" height="24.1819" fill="white" transform="translate(9 3.02274)"></rect></clipPath></defs></svg>