<svg xmlns="http:&#x2F;&#x2F;www.w3.org&#x2F;2000&#x2F;svg" width="20" height="34" viewBox="0 0 20 34" fill="none"><g clip-path="url(#clip0_4189_85875)"><path fill-rule="evenodd" clip-rule="evenodd" d="M16.3532 12.06C15.5794 11.65 14.643 11.4 13.6227 11.4H7.5307L6.51043 18H6.51041L6.33297 19.135L5.49014 24.6H1L3.70099 7H10.9759C13.4255 7 15.3527 8.385 16.0624 10.31C16.2645 10.855 16.3631 11.445 16.3532 12.06Z" fill="#0D0D0D"></path><path d="M18.9408 17.1201C18.443 20.1701 15.8553 22.4001 12.7946 22.4001H10.2858L9.24089 29.0001H4.77539L5.49007 24.6001L6.33289 19.1351L6.51033 18.0001H10.1231C13.869 18.0001 16.3532 14.7851 16.3532 12.0601C18.1965 13.0251 19.271 14.9751 18.9408 17.1201Z" fill="#808080"></path><path d="M16.3536 12.06C15.5797 11.65 14.6433 11.4 13.623 11.4H7.531L6.51074 18H10.1236C13.8694 18 16.3536 14.785 16.3536 12.06Z" fill="#4D4D4D"></path></g></svg>