<svg width="19" height="24" viewBox="0 0 19 24" fill="none" xmlns="http:&#x2F;&#x2F;www.w3.org&#x2F;2000&#x2F;svg"><g clip-path="url(#clip0_8882_6465)"><path d="M10.4014 0.941162C12.8105 0.941162 14.7062 2.33409 15.4043 4.27026C15.603 4.81847 15.7001 5.41239 15.6904 6.03101C14.9294 5.61863 14.0082 5.36698 13.0049 5.36694H7.0127L6.00977 12.0056L5.83496 13.1472L5.00586 18.6443H0.589844L3.24609 0.941162H10.4014Z" fill="#0D0D0D"></path><path d="M18.2348 11.1207C17.7452 14.1886 15.2002 16.4317 12.1898 16.4317H9.72238L8.69468 23.0706H4.30273L5.00564 18.6447L5.83458 13.1475L6.0091 12.0059H9.56241C13.2466 12.0059 15.6898 8.77194 15.6898 6.03091C17.5028 7.00159 18.5596 8.96306 18.2348 11.1207Z" fill="#808080"></path><path d="M15.6905 6.03092C14.9294 5.61851 14.0083 5.36703 13.0049 5.36703H7.01322L6.00977 12.0059H9.56307C13.2473 12.0059 15.6905 8.77195 15.6905 6.03092Z" fill="#4D4D4D"></path></g></svg>