<svg x="0px" y="0px" viewBox="0 0 155.21 183.56" style="enable-background:new 0 0 155.21 183.56;" xmlns="http:&#x2F;&#x2F;www.w3.org&#x2F;2000&#x2F;svg"><path fill="#000000" d="M60.82,38.11c1.48-0.71,3.06-1.07,4.71-1.07h44.72c5.57,0,10.73,0.38,15.35,1.12c1.36,0.22,2.69,0.47,3.98,0.76 c1.3,0.29,2.57,0.61,3.79,0.97c0.61,0.18,1.22,0.37,1.82,0.57c0.6,0.2,1.16,0.43,1.73,0.65c0.91-12.22-2.51-20.75-8.41-27.27 C119.88,4.28,104.66,0,85,0H31.88c-4.02,0-7.44,2.92-8.06,6.89L0.06,157.54c-0.47,2.97,1.83,5.66,4.84,5.66h31.29L54.76,46.24 C55.32,42.7,57.58,39.66,60.82,38.11z "></path><path fill="#000000" d="M132.83,47.59c-0.51-0.17-1.03-0.33-1.56-0.48c-1.07-0.32-2.18-0.6-3.31-0.85c-1.15-0.26-2.34-0.48-3.55-0.68 c-4.23-0.68-8.99-1.03-14.16-1.03H68.72c-1.1,0-2.15,0.25-3.08,0.7c-2.06,0.99-3.59,2.94-3.97,5.33l-7.5,47.68 c0.8-0.14,1.64-0.24,2.56-0.24c10.04,0,16.74,0,16.74,0c8.88,0,16.81-1,23.82-3.01c17.72-5.09,29.64-16.63,35.61-34.96 c1.32-4.06,2.29-7.81,2.97-11.32C134.9,48.33,133.88,47.94,132.83,47.59z "></path><path fill="#000000" d="M148.21,56.27c-1.44-1.64-3.19-3.02-5.07-4.29c-4.63,22.39-18.44,53.91-70.2,53.91c-0.11,0-12.83-0.04-12.83-0.04 c-4.02,0-7.41,2.92-8.03,6.89c0,0-9.97,62.79-10.46,66.09c-0.39,2.61,1.87,4.73,4.25,4.73h25.76c3.51,0,6.51-2.56,7.05-6.03 l6.24-38.93c0.55-3.47,3.54-6.03,7.05-6.03h4.44c28.76,0,51.28-11.69,57.86-45.48c0.2-1,0.37-2.01,0.52-3.03 C156.14,72.74,154.31,63.23,148.21,56.27z"></path></svg>